# xmcd
#
# Track frame offsets:
#	180
#	19814
#	40157
#	55549
#	75715
#	92489
#	109682
#	128402
#	146221
#
# Disc length: 2205 seconds
#
# Revision: 1
# Processed by: cddbd v1.5.2PL0 Copyright (c) Steve Scherf et al.
# Submitted via: audiograbber 1.83.01
#
DISCID=68089b09
DTITLE=El may - The Meantime
DYEAR=1994
DGENRE=
TTITLE0=No More Crying Now
TTITLE1=Things I Know
TTITLE2=Willing and Able
TTITLE3=Spend The Night With Me
TTITLE4=Little Bitty Pretty One
TTITLE5=I Know What I Do
TTITLE6=Teach Me How To Dance
TTITLE7=About You and Me
TTITLE8=In The Meantime
EXTD=
EXTT0=
EXTT1=
EXTT2=
EXTT3=
EXTT4=
EXTT5=
EXTT6=
EXTT7=
EXTT8=
PLAYORDER=
